<?xml version="1.0" encoding="UTF-8"?>
<!-- Generator: Adobe Illustrator 16.0.0, SVG Export Plug-In . SVG Version: 6.00 Build 0)  -->
<!DOCTYPE svg PUBLIC "-//W3C//DTD SVG 1.1//EN" "http://www.w3.org/Graphics/SVG/1.1/DTD/svg11.dtd">
<svg version="1.1" id="Livello_1" xmlns="http://www.w3.org/2000/svg" xmlns:xlink="http://www.w3.org/1999/xlink" x="0px" y="0px" width="2000px" height="1828.227px" viewBox="0 0 2000 1828.227" enable-background="new 0 0 2000 1828.227" xml:space="preserve">
<path fill="#FFFFFF" d="M1918.198,239.598C1825.066,90.016,1658.311,0.009,1484.761,0c-25.905-0.001-51.938,2.002-77.926,6.113  C1215.724,36.35,1055.092,178.028,1000,362.652C944.908,178.028,784.275,36.35,593.165,6.113C567.178,2.003,541.145-0.001,515.239,0  C341.689,0.009,174.933,90.016,81.802,239.598C-120.1,563.877,89.584,967.202,301.83,1222.17  c183.224,220.12,406.604,409.524,643.332,569.994c14.023,9.501,28.121,18.884,42.346,28.069l12.485,7.993l18.448-11.839  c12.212-7.954,24.33-16.049,36.397-24.225c236.728-160.47,460.108-349.874,643.332-569.994  C1910.415,967.202,2120.1,563.877,1918.198,239.598z M1841.823,1001.583c-43.107,73.226-94.037,145.277-151.376,214.158  c-169.12,203.175-384.866,394.311-641.247,568.104c-19.114,12.953-34.735,23.279-49.2,32.517  c-14.464-9.236-30.085-19.562-49.2-32.517c-256.381-173.794-472.128-364.93-641.247-568.104  c-57.338-68.881-108.269-140.934-151.376-214.158c-49.448-83.997-87.154-167.329-112.069-247.685  c-28.196-90.94-39.946-178.149-34.92-259.202c2.725-43.953,10.461-86.771,22.995-127.261c13.212-42.68,32.104-83.904,56.151-122.527  c44.542-71.543,107.777-131.154,182.867-172.393c74.41-40.863,158.104-62.464,242.066-62.468c25.518,0,51.197,2.016,76.326,5.989  c47.521,7.519,93.834,22.174,137.655,43.561c42.88,20.927,82.666,47.938,118.252,80.282c35.581,32.34,66.258,69.371,91.181,110.062  c25.406,41.481,44.381,86.07,56.41,132.532v0.308h0.082h9.652h0.082v-0.308c12.027-46.462,31.003-91.051,56.408-132.532  c24.924-40.692,55.602-77.723,91.183-110.062c35.587-32.344,75.372-59.355,118.252-80.282  c43.821-21.386,90.134-36.042,137.653-43.561c25.129-3.974,50.81-5.989,76.326-5.989c83.963,0.004,167.659,21.605,242.066,62.468  c75.092,41.237,138.326,100.849,182.868,172.392c24.047,38.623,42.94,79.847,56.151,122.527  c12.533,40.491,20.271,83.309,22.994,127.261c5.026,81.053-6.724,168.261-34.921,259.202  C1928.979,834.254,1891.271,917.586,1841.823,1001.583z"/>
</svg>